<?xml version="1.0" standalone="no"?>
<!DOCTYPE svg PUBLIC "-//W3C//DTD SVG 20010904//EN"
 "http://www.w3.org/TR/2001/REC-SVG-20010904/DTD/svg10.dtd">
<svg version="1.0" xmlns="http://www.w3.org/2000/svg"
 width="1024.000000pt" height="1024.000000pt" viewBox="0 0 1024.000000 1024.000000"
 preserveAspectRatio="xMidYMid meet">

<g transform="translate(0.000000,1024.000000) scale(0.100000,-0.100000)"
fill="#000000" stroke="none">
<path d="M0 5120 l0 -5120 5120 0 5120 0 0 5120 0 5120 -5120 0 -5120 0 0
-5120z m2120 4325 c40 -21 73 -67 120 -168 46 -100 106 -199 233 -382 105
-151 113 -178 59 -226 -18 -16 -43 -29 -57 -29 -44 0 -97 61 -159 182 -32 62
-67 124 -76 138 -10 14 -48 87 -85 162 -39 80 -77 144 -91 153 -27 17 -27 17
-48 -53 -8 -30 -53 -120 -98 -200 -45 -81 -104 -188 -130 -239 -57 -109 -96
-147 -142 -138 -40 8 -76 48 -76 85 0 27 125 245 228 398 22 31 60 98 87 147
63 118 81 143 119 166 37 23 77 24 116 4z m2886 -37 c23 -11 83 -92 98 -133 5
-15 9 -16 15 -6 8 13 155 36 170 26 10 -6 21 18 21 46 0 11 11 31 25 44 32 33
110 35 148 5 54 -43 59 -131 10 -182 -43 -45 -104 -37 -165 20 -16 14 -28 21
-28 15 0 -14 -47 -34 -105 -43 -45 -8 -52 -6 -67 13 l-17 22 -7 -32 c-8 -41
-44 -80 -81 -89 -40 -10 -58 -25 -41 -35 9 -6 14 -41 16 -112 l4 -104 -39 -6
c-21 -4 -49 -7 -62 -7 l-24 0 6 125 6 126 -38 24 c-79 49 -95 93 -66 176 38
106 127 149 221 107z m-483 -7 c14 -6 33 -28 46 -53 20 -42 24 -45 83 -57 86
-17 109 -33 99 -68 -7 -26 -11 -28 -62 -27 -30 1 -68 8 -84 16 -29 15 -31 15
-65 -13 -46 -39 -88 -39 -134 2 -100 88 -7 247 117 200z m4403 -41 l183 0 15
-29 c10 -19 17 -77 22 -173 l7 -145 -38 -42 c-58 -64 -114 -93 -183 -94 -62 0
-91 11 -135 52 -42 38 -55 79 -72 214 -20 165 -20 231 1 223 9 -3 98 -6 200
-6z m-1749 -21 c-3 -12 -14 -93 -23 -181 -17 -152 -19 -162 -48 -198 -84 -104
-204 -114 -292 -26 -23 22 -46 58 -52 78 -13 48 2 250 24 331 5 15 23 17 201
17 194 0 195 0 190 -21z m466 14 c2 -5 1 -88 -2 -185 l-6 -177 -40 -41 c-22
-23 -53 -48 -69 -57 -38 -20 -124 -20 -163 0 -37 19 -91 82 -100 115 -5 22 12
280 23 330 4 22 6 22 179 22 95 0 176 -3 178 -7z m467 -5 c0 -7 7 -77 14 -155
16 -165 11 -201 -36 -250 -47 -49 -79 -63 -143 -63 -71 0 -125 27 -165 82 -30
41 -30 41 -30 182 0 78 3 158 6 179 l7 37 173 0 c132 0 174 -3 174 -12z m464
-20 c26 -162 46 -298 46 -316 0 -26 -61 -97 -101 -118 -61 -31 -163 -9 -216
48 -43 46 -53 91 -60 258 l-6 160 166 0 166 0 5 -32z m-6444 -405 c7 -21 43
-90 80 -153 38 -64 72 -123 75 -131 5 -14 -12 -17 -126 -23 -108 -5 -319 1
-319 9 0 10 166 322 174 327 6 4 32 8 58 8 45 0 47 -1 58 -37z m-580 21 c0 -3
-8 -18 -19 -32 -74 -107 -100 -210 -65 -260 12 -18 13 -23 2 -27 -7 -2 -107
-6 -223 -7 l-210 -3 -3 144 c-2 116 0 148 13 167 l15 24 245 0 c135 0 245 -3
245 -6z m1576 -14 c22 -19 20 -282 -2 -304 -13 -14 -49 -16 -240 -16 -123 0
-224 4 -224 9 0 5 7 25 15 44 29 70 20 107 -56 218 -22 31 -39 59 -39 63 0 13
530 -1 546 -14z m3725 -161 l55 -11 -4 -596 -4 -597 1064 -1 1065 -2 6 152 c4
83 11 166 17 185 14 49 47 81 85 81 l32 0 6 -127 c4 -71 7 -174 7 -230 0 -94
-2 -104 -25 -131 -55 -66 20 -62 -1184 -62 l-1092 0 -49 46 -50 47 0 628 c0
346 4 629 8 629 5 0 33 -5 63 -11z m-1334 -54 c120 -60 233 -189 284 -324 28
-75 32 -164 21 -476 -9 -257 -10 -261 -41 -347 -18 -48 -50 -112 -72 -142 -57
-80 -163 -148 -257 -165 -26 -5 -270 -6 -543 -2 l-495 6 -76 38 c-93 45 -171
126 -220 224 l-33 67 -5 236 c-3 129 -3 316 0 415 l5 180 33 61 c37 67 115
160 164 196 17 12 59 32 92 44 60 23 67 23 567 23 l506 1 70 -35z m3640 -3
c16 -10 26 -92 18 -142 -7 -40 -8 -41 -38 -35 -54 11 -81 37 -91 89 -10 54 0
71 48 85 40 12 49 12 63 3z m-393 -141 c3 -5 6 -210 6 -457 l1 -449 -178 0
-177 0 2 448 c1 247 4 452 7 458 8 11 332 12 339 0z m-6524 -56 c245 -1 514
-5 598 -9 134 -7 152 -10 148 -25 -2 -9 -7 -38 -11 -66 -3 -27 -19 -106 -35
-175 -16 -69 -38 -170 -49 -225 -11 -55 -31 -154 -45 -220 -13 -66 -30 -150
-36 -186 -7 -37 -21 -81 -31 -98 -38 -63 -25 -62 -719 -59 l-629 3 -30 29
c-17 16 -33 37 -36 46 -21 66 -195 920 -195 958 0 22 2 22 153 24 177 3 237 2
292 -7 23 -3 61 1 90 9 28 8 59 12 70 8 11 -3 220 -6 465 -7z m5928 -175 c2
-41 1 -211 -3 -377 l-7 -303 -168 0 -167 0 -5 89 c-6 95 1 637 8 659 3 10 42
12 171 10 l168 -3 3 -75z m-1610 -47 c15 -20 8 -73 -11 -85 -17 -11 -85 -10
-106 2 -10 5 -21 16 -25 25 -9 23 11 64 36 75 32 13 90 4 106 -17z m-3119 -14
c12 -22 12 -29 0 -55 -17 -35 -50 -42 -85 -19 -21 14 -24 21 -18 48 9 45 23
58 58 55 20 -2 35 -11 45 -29z m-203 -14 c10 -56 2 -65 -60 -65 -58 0 -76 14
-76 57 0 31 21 43 77 43 52 0 52 0 59 -35z m429 -15 c0 -35 0 -35 -48 -38 -52
-3 -64 8 -53 54 6 23 10 25 54 22 46 -3 47 -3 47 -38z m298 -132 c4 -95 7
-228 7 -295 0 -123 0 -123 -24 -123 -40 0 -118 60 -143 110 -18 36 -24 69 -29
166 -8 135 -1 168 47 234 27 37 93 79 125 80 7 0 13 -58 17 -172z m2034 151
c34 -12 90 -64 109 -101 10 -20 14 -71 14 -202 l0 -175 -30 -35 c-29 -33 -55
-45 -122 -60 l-28 -6 0 288 c0 159 3 292 7 295 9 9 17 9 50 -4z m1571 -304 c2
-121 0 -239 -3 -262 l-6 -42 -175 1 c-117 1 -177 5 -180 12 -2 6 0 121 4 256
l7 245 100 6 c55 3 134 5 175 5 l75 -1 3 -220z m-4160 43 c12 -12 17 -104 6
-132 -7 -17 -69 -22 -92 -7 -19 11 -28 117 -12 136 15 18 81 20 98 3z m1 -304
c2 -2 4 -31 5 -65 1 -74 -12 -88 -71 -73 l-38 9 0 65 c0 64 0 65 30 71 27 6
64 2 74 -7z m5 -286 c22 -31 20 -84 -4 -108 -55 -55 -138 10 -110 86 14 35 26
44 67 44 22 0 37 -7 47 -22z m-1301 -185 c32 -16 67 -68 67 -99 0 -19 7 -22
63 -27 97 -9 202 -53 259 -107 l47 -46 43 23 c25 13 62 22 87 23 37 0 49 -5
82 -39 33 -32 39 -45 39 -80 0 -54 -32 -116 -70 -136 -16 -8 -53 -15 -83 -15
-51 0 -57 -3 -103 -47 -27 -27 -62 -57 -78 -68 l-28 -20 20 -85 c11 -47 23
-111 27 -142 l6 -58 58 0 c32 0 99 3 149 6 90 7 91 7 106 39 17 35 11 53 -70
240 -19 44 -34 86 -34 92 0 7 14 20 31 29 30 15 32 15 55 -7 36 -34 98 -164
114 -237 12 -58 16 -64 49 -78 72 -30 109 -92 97 -160 -8 -42 -64 -100 -104
-108 -26 -6 -31 -15 -57 -97 -18 -60 -44 -113 -76 -160 -54 -78 -55 -81 -35
-98 25 -21 40 -95 26 -135 -25 -78 -94 -103 -189 -70 l-46 17 -37 -36 c-60
-57 -227 -127 -302 -127 -27 0 -34 -6 -51 -42 -26 -53 -73 -82 -136 -82 -56 0
-90 20 -123 72 -21 34 -31 39 -99 56 -131 30 -277 113 -277 156 0 10 8 28 18
40 l18 22 99 -49 c133 -66 201 -89 220 -73 21 18 20 21 -27 71 -56 58 -142
184 -159 232 -16 44 -17 44 -102 -20 l-63 -47 4 -57 c8 -102 -48 -156 -151
-146 -43 4 -56 10 -85 42 -32 34 -34 41 -30 86 4 37 14 60 38 91 22 26 28 39
17 35 -36 -14 -117 130 -139 245 -12 66 -13 66 -49 72 -46 7 -93 58 -103 110
-5 28 -2 48 14 81 26 55 40 66 88 72 36 5 38 7 39 43 4 98 108 306 147 294 16
-5 15 -2 -6 27 -69 92 -75 141 -22 199 57 63 127 70 207 21 l34 -21 11 24 c22
50 162 119 285 141 32 6 43 16 72 61 19 30 36 54 37 54 2 0 21 7 43 14 42 15
72 13 118 -11z m3017 -110 l0 -33 -199 0 c-182 0 -200 2 -203 18 -11 50 -10
50 203 48 l199 -1 0 -32z m592 -160 c65 -29 123 -86 166 -162 l37 -66 0 -790
0 -790 -34 -72 c-41 -87 -114 -161 -198 -201 l-58 -27 -710 0 -710 0 -73 34
c-90 42 -149 105 -185 195 -49 122 -51 146 -43 930 l6 729 32 56 c49 88 102
137 172 160 34 11 75 21 91 23 17 2 352 3 745 2 696 -1 717 -2 762 -21z m3414
-25 c27 -18 54 -44 61 -58 9 -17 13 -76 13 -182 l0 -158 -1169 0 c-642 0
-1189 3 -1215 6 l-46 7 0 158 0 158 32 37 c18 20 46 43 63 50 24 11 242 13
1121 14 l1092 0 48 -32z m-2779 -54 c125 -51 192 -201 149 -331 -47 -140 -219
-227 -337 -169 -47 22 -105 80 -130 128 -26 50 -34 135 -19 197 37 157 190
236 337 175z m-2661 -8 c59 -28 121 -96 130 -143 12 -65 -1 -195 -24 -240 -35
-67 -129 -123 -206 -123 -54 0 -133 30 -176 68 -180 153 -66 462 170 462 37 0
72 -8 106 -24z m3395 -535 l24 -19 0 -662 0 -662 50 6 c28 3 89 6 137 6 l87 0
3 158 3 157 80 0 80 0 3 -162 2 -163 43 0 c23 0 66 3 94 6 l53 7 2 211 3 211
70 0 70 0 5 -212 c3 -117 8 -214 11 -217 3 -3 44 -3 92 1 l87 6 0 241 c0 133
4 247 9 254 5 9 28 12 77 10 l69 -3 3 -257 2 -258 89 0 88 0 7 38 c3 20 6 166
6 324 l0 287 34 6 c18 4 53 3 77 -2 l44 -9 5 -324 c3 -179 8 -324 13 -322 4 1
43 2 87 2 l80 0 2 403 3 402 65 3 c36 1 72 -2 80 -8 13 -8 15 -67 18 -408 l3
-398 76 9 c82 9 107 1 140 -50 12 -19 11 -24 -10 -49 l-24 -27 -1118 2 c-989
2 -1121 4 -1141 18 -29 18 -30 49 -5 82 15 20 28 25 67 25 l49 1 5 658 5 658
25 19 c32 25 42 25 71 1z m1910 -30 c24 -19 24 -20 7 -63 -37 -97 -118 -282
-127 -291 -12 -12 -78 10 -90 30 -5 9 -6 34 -4 55 4 27 2 38 -7 38 -16 0 -312
-169 -322 -184 -4 -6 -8 -24 -8 -39 0 -46 -40 -77 -100 -77 -45 0 -55 4 -94
40 -42 39 -47 41 -180 63 -111 19 -139 21 -143 11 -3 -8 -21 -23 -40 -35 -31
-20 -38 -20 -73 -9 -39 13 -39 13 -97 -37 -32 -27 -88 -70 -125 -97 -45 -31
-68 -54 -68 -67 0 -33 -28 -78 -60 -94 -63 -32 -143 -7 -175 56 -16 29 -16 35
0 75 9 24 30 55 48 70 28 23 36 25 84 19 48 -6 56 -4 90 23 21 16 67 49 103
74 89 63 110 85 110 113 0 14 13 39 29 57 25 28 36 33 75 33 37 0 51 -6 78
-32 26 -24 45 -32 88 -38 30 -3 94 -13 142 -22 l87 -15 34 26 c37 28 80 33
121 15 22 -10 32 -8 73 18 26 17 84 51 128 77 84 49 115 70 115 78 0 3 -13 11
-29 18 -39 16 -63 43 -56 63 10 25 52 35 195 47 74 7 137 14 139 16 9 9 30 3
52 -15z m-5326 -96 c4 -22 5 -69 3 -105 -2 -52 -6 -64 -18 -61 -8 2 -45 6 -82
9 l-68 5 0 92 c0 50 2 94 4 96 2 2 38 4 80 4 l76 0 5 -40z m2658 -32 c10 -102
6 -109 -61 -116 -31 -3 -64 -7 -72 -8 -12 -3 -15 13 -18 94 l-3 97 74 0 74 0
6 -67z m-2674 -266 c50 -33 70 -80 50 -116 -46 -82 -228 -97 -269 -22 -21 40
-12 98 21 135 45 52 122 53 198 3z m2691 30 c14 -7 35 -32 48 -55 29 -52 24
-82 -23 -129 -30 -30 -38 -33 -95 -33 -61 0 -64 1 -107 44 -38 38 -43 48 -37
73 9 37 17 47 72 83 49 33 99 39 142 17z m-77 -322 l57 -6 0 -79 c0 -43 -3
-81 -7 -83 -5 -3 -39 -7 -78 -8 l-70 -4 -3 75 c-4 93 3 123 26 116 9 -2 43 -7
75 -11z m-2591 -87 l-3 -93 -85 0 -85 0 3 85 3 85 65 6 c36 3 74 6 85 7 19 2
20 -3 17 -90z m-36 -209 c63 -16 132 -82 175 -165 30 -61 34 -76 34 -149 0
-71 -4 -88 -33 -147 -30 -62 -64 -97 -121 -127 -29 -16 -37 -6 -47 56 -5 36
-1 51 30 107 44 79 48 140 13 199 -60 100 -161 103 -232 7 -20 -27 -25 -46
-25 -91 0 -49 5 -63 35 -105 19 -27 38 -55 42 -63 7 -15 -13 -101 -27 -115
-13 -13 -108 52 -142 98 -91 125 -67 314 54 433 68 67 146 86 244 62z m2730
-15 c84 -40 171 -170 181 -269 12 -110 -39 -219 -131 -281 -72 -48 -82 -46
-90 22 -5 44 -3 62 9 78 64 87 70 101 70 147 0 88 -93 180 -166 164 -48 -11
-104 -73 -118 -132 -14 -57 -3 -95 45 -158 26 -34 26 -38 15 -92 -6 -31 -13
-58 -15 -61 -9 -8 -115 68 -139 100 -37 49 -61 130 -54 186 7 62 40 148 77
203 70 105 206 145 316 93z m-4797 -28 c7 -8 11 -37 9 -68 l-3 -53 -43 -3
c-38 -3 -43 0 -52 23 -16 42 -12 93 8 104 25 15 68 13 81 -3z m499 -169 l3
-58 -48 3 -48 3 -3 41 c-4 52 17 76 62 72 30 -3 31 -4 34 -61z m4233 -73 c17
-21 0 -49 -31 -49 -27 0 -46 25 -37 49 8 21 51 21 68 0z m-2703 -17 c2 -10 -2
-24 -8 -32 -18 -21 -50 -1 -50 31 0 22 4 25 27 22 17 -2 29 -10 31 -21z
m-2028 -77 l0 -70 -44 0 c-39 0 -45 3 -50 26 -8 31 3 96 18 106 6 4 26 8 44 8
l32 0 0 -70z m-724 35 c13 -8 24 -30 28 -55 7 -43 21 -55 200 -160 96 -58 98
-62 131 -276 l29 -189 1149 -2 1150 -2 29 -28 c16 -15 31 -37 34 -48 6 -24
-11 -114 -66 -340 -21 -88 -55 -248 -75 -355 -68 -363 -155 -744 -188 -821 -8
-20 -32 -49 -52 -65 -37 -28 -41 -29 -214 -37 -97 -4 -470 -7 -829 -5 l-652 3
0 -40 c0 -22 14 -123 30 -225 16 -102 30 -188 30 -192 0 -5 -8 -8 -17 -8 -10
-1 -42 -9 -70 -19 l-53 -18 -9 31 c-14 45 -48 242 -66 386 -9 69 -27 181 -40
250 -30 154 -100 583 -115 705 -6 50 -21 151 -35 225 -13 74 -31 187 -40 250
-9 63 -31 205 -50 315 -18 110 -39 238 -46 286 -11 84 -12 85 -50 107 -21 12
-64 47 -97 77 -52 48 -61 53 -72 39 -23 -26 -71 -14 -98 26 -20 29 -23 44 -19
89 3 46 9 59 36 83 35 31 75 36 107 13z m1218 -27 c3 -13 6 -44 6 -70 0 -42
-3 -48 -25 -54 -14 -3 -36 -3 -50 0 -23 6 -25 11 -25 57 0 68 13 89 54 89 26
0 35 -5 40 -22z m354 -30 l3 -48 -50 0 -51 0 0 51 0 50 48 -3 47 -3 3 -47z
m252 0 l-5 -53 -47 -3 -48 -3 0 49 c0 27 3 52 7 55 3 4 27 7 52 7 l47 0 -6
-52z m5422 -181 c11 -18 20 -88 16 -127 -3 -30 -7 -35 -32 -38 -15 -2 -41 2
-57 8 -28 12 -29 14 -29 91 0 72 1 78 23 82 30 6 70 -2 79 -16z m-3114 -23
c94 -47 172 -166 172 -262 0 -44 -26 -105 -65 -150 -61 -72 -172 -109 -275
-90 -138 25 -224 120 -223 248 0 79 18 124 75 186 86 94 210 121 316 68z
m-3420 -6 c7 -7 12 -27 12 -45 0 -32 -1 -33 -45 -33 l-45 0 0 39 c0 22 5 42
13 44 22 10 53 7 65 -5z m503 -29 c15 -15 19 -30 17 -61 -2 -34 -7 -43 -29
-50 -16 -5 -37 -5 -52 1 -24 9 -27 16 -27 55 0 71 47 99 91 55z m6624 -139 l0
-65 -39 -3 c-48 -4 -56 6 -56 81 l0 58 48 -3 47 -3 0 -65z m-587 -147 l-3 -98
-33 -3 c-27 -3 -34 1 -42 23 -11 29 -14 158 -3 168 3 4 24 7 45 7 l39 0 -3
-97z m-359 -19 c12 -15 21 -36 21 -48 0 -11 9 -84 22 -162 l22 -140 75 -17
c83 -19 210 -71 281 -115 l46 -29 128 114 c73 64 138 113 149 113 12 0 63 -42
126 -103 58 -57 141 -134 184 -171 53 -47 77 -75 77 -91 0 -20 -117 -172 -200
-260 l-29 -30 34 -57 c44 -75 92 -184 109 -249 l13 -54 64 -12 c236 -47 274
-57 296 -79 23 -23 23 -27 23 -249 0 -126 -4 -234 -10 -244 -14 -27 -49 -37
-211 -62 l-147 -23 -12 -55 c-15 -70 -63 -188 -107 -263 -18 -31 -33 -62 -33
-68 0 -7 39 -57 88 -112 95 -108 132 -156 132 -171 0 -5 -80 -89 -177 -187
-175 -174 -209 -199 -245 -179 -7 4 -63 57 -123 117 l-111 109 -31 -24 c-38
-29 -190 -92 -299 -123 l-81 -23 -17 -122 c-9 -68 -16 -138 -16 -158 0 -19 -8
-44 -17 -56 -17 -20 -27 -21 -253 -22 -228 0 -235 0 -252 21 -10 12 -20 36
-22 53 -3 18 -15 89 -27 158 l-22 126 -91 27 c-105 32 -240 88 -275 115 l-25
19 -59 -52 c-33 -28 -88 -77 -123 -108 -68 -62 -92 -69 -135 -40 -44 29 -348
324 -354 343 -9 27 10 55 89 139 39 41 86 91 104 111 l33 36 -35 57 c-42 70
-88 179 -112 263 -14 53 -21 63 -43 67 -14 3 -82 15 -151 27 -150 26 -185 40
-199 81 -12 34 -14 406 -2 448 10 37 59 56 222 85 l146 26 17 57 c20 63 92
212 130 268 l24 36 -71 92 c-39 50 -90 113 -114 140 -24 26 -43 58 -43 70 0
14 31 52 88 107 105 103 291 269 301 269 16 0 73 -47 178 -146 l108 -102 34
29 c36 30 172 99 231 117 19 6 54 16 77 22 38 10 43 14 48 48 3 20 15 74 26
119 10 45 19 94 19 108 0 14 7 41 14 60 l15 35 230 0 230 0 20 -26z m939 -26
c7 -7 12 -36 12 -66 l0 -53 -52 3 -53 3 -3 48 c-2 27 2 55 9 63 14 17 70 19
87 2z m-593 -87 c11 -13 18 -38 19 -73 l1 -53 -37 -3 c-29 -2 -39 1 -48 17 -9
18 -6 80 6 119 5 18 39 14 59 -7z m-3280 -180 c30 -7 30 -7 33 -86 3 -86 -2
-95 -55 -95 -39 0 -67 25 -59 54 3 12 6 50 6 85 0 61 1 63 23 56 12 -3 36 -10
52 -14z m-2 -264 c14 -10 20 -38 27 -132 13 -152 11 -159 -44 -151 -22 4 -46
12 -53 19 -6 7 -16 50 -21 96 -10 80 -3 129 23 172 9 13 48 11 68 -4z m-908
-92 l0 -50 -63 -3 c-76 -4 -92 7 -92 59 0 43 11 48 105 45 l50 -1 0 -50z
m1506 45 c14 -8 19 -21 19 -49 0 -43 -13 -51 -80 -51 -70 0 -81 8 -78 53 2 34
7 42 28 48 39 11 89 10 111 -1z m293 -12 c3 -13 6 -35 6 -50 l0 -28 -75 0 -75
0 0 44 0 45 53 4 c28 2 59 4 68 5 10 1 19 -8 23 -20z m-2086 -11 c10 -49 -20
-84 -59 -72 -22 7 -26 64 -7 83 18 18 62 11 66 -11z m580 -25 l3 -43 -83 3
c-83 3 -83 3 -86 31 -6 54 1 58 85 55 l78 -3 3 -43z m270 1 l-3 -48 -75 0 -75
0 -3 33 c-6 58 0 62 83 62 l76 0 -3 -47z m682 2 l0 -45 -80 0 -80 0 0 38 c0
21 3 42 7 45 3 4 39 7 80 7 l73 0 0 -45z m840 11 c0 -46 -22 -66 -73 -66 -77
0 -87 7 -87 56 l0 44 80 0 80 0 0 -34z m-1063 -408 c9 -7 13 -49 13 -144 l0
-133 43 -11 c23 -7 62 -23 86 -36 l44 -25 36 33 c20 18 64 59 97 91 48 46 66
58 82 53 29 -10 272 -265 266 -280 -3 -7 -47 -50 -99 -96 -94 -82 -103 -94
-86 -104 8 -5 33 -81 45 -138 l6 -28 139 0 c117 0 140 -2 145 -16 10 -25 7
-318 -4 -334 -7 -12 -39 -16 -147 -20 l-138 -5 -6 -38 c-3 -21 -17 -61 -30
-89 l-24 -51 55 -46 c30 -25 79 -69 109 -97 45 -43 52 -53 43 -70 -5 -10 -64
-72 -130 -136 -95 -93 -126 -118 -148 -118 -21 0 -47 19 -112 85 l-85 84 -94
-36 -93 -37 0 -133 c0 -183 8 -176 -201 -171 -209 4 -202 -2 -209 179 l-5 131
-88 34 c-49 19 -94 34 -101 34 -6 0 -34 -23 -61 -51 -63 -65 -123 -109 -147
-109 -19 0 -203 177 -246 237 l-22 31 105 93 c58 51 104 95 103 98 -2 3 -18
45 -37 94 l-34 87 -126 0 c-69 0 -133 5 -141 10 -12 8 -15 38 -15 169 0 129 3
163 15 175 11 11 47 15 139 18 l124 3 23 73 c12 40 27 79 34 87 10 12 -3 30
-84 106 -53 50 -96 98 -96 106 0 34 233 264 266 263 5 0 51 -39 102 -85 51
-47 97 -85 103 -85 6 0 25 11 42 24 18 13 55 31 82 39 l50 14 7 59 c3 32 9 88
13 124 3 36 10 72 15 80 17 28 345 35 377 8z m-3148 -1343 c119 -54 191 -167
199 -311 6 -115 -14 -171 -90 -250 -81 -85 -156 -119 -258 -118 -93 0 -166 30
-240 100 -99 92 -132 219 -91 352 23 76 77 157 131 197 92 68 237 80 349 30z
m1366 -5 c86 -39 139 -90 177 -168 30 -61 33 -74 33 -162 0 -84 -3 -101 -27
-146 -33 -63 -103 -136 -157 -163 -144 -74 -286 -53 -402 60 -103 101 -136
248 -85 379 56 138 135 209 258 229 75 12 133 3 203 -29z m-465 4 c0 -3 -11
-20 -25 -38 -14 -18 -31 -50 -38 -72 l-14 -39 -276 -3 -277 -2 -29 63 c-15 36
-34 67 -40 71 -6 4 -9 12 -6 17 7 10 705 13 705 3z m2500 -974 c11 -11 20 -29
20 -40 0 -23 -33 -60 -54 -60 -23 0 -70 20 -78 33 -38 60 60 119 112 67z m258
8 c14 -14 16 -67 3 -87 -12 -19 -74 -20 -95 -2 -19 16 -21 72 -4 89 16 16 80
16 96 0z m266 -10 c35 -49 9 -88 -59 -88 -46 0 -55 9 -55 59 0 37 17 51 61 51
28 0 42 -6 53 -22z m260 6 c18 -18 20 -47 6 -75 -8 -14 -21 -19 -53 -19 -24 0
-48 5 -55 12 -18 18 -15 75 6 87 26 16 79 13 96 -5z m258 -1 c21 -19 24 -66 4
-82 -19 -16 -82 -17 -101 -1 -18 15 -20 71 -3 88 17 17 78 15 100 -5z m249 -4
c47 -47 -11 -121 -70 -88 -50 28 -31 109 26 109 12 0 32 -9 44 -21z m-1547
-15 c9 -24 -4 -63 -24 -74 -10 -6 -34 -10 -53 -10 -36 0 -47 15 -47 67 0 26
11 31 71 32 34 1 49 -3 53 -15z"/>
<path d="M4360 8575 c-73 -37 -103 -62 -125 -105 -14 -27 -14 -30 11 -49 37
-29 59 -26 107 12 22 17 59 41 81 52 54 27 75 64 56 99 -18 35 -50 33 -130 -9z"/>
<path d="M4508 8349 c-162 -18 -282 -180 -265 -359 8 -85 42 -164 95 -218 89
-91 62 -87 601 -90 421 -2 480 -1 524 14 134 44 233 224 208 376 -21 124 -81
207 -183 253 l-62 28 -430 1 c-237 1 -457 -2 -488 -5z m183 -212 c55 -37 82
-84 77 -138 -10 -106 -114 -160 -214 -113 -42 20 -84 88 -84 135 0 106 132
176 221 116z m657 9 c112 -58 122 -194 20 -256 -66 -40 -156 -16 -198 52 -70
116 60 265 178 204z"/>
<path d="M4782 7514 c-18 -13 -19 -61 -1 -79 20 -20 318 -23 330 -3 17 24 21
56 11 75 -10 16 -26 18 -168 18 -96 0 -163 -4 -172 -11z"/>
<path d="M1340 8368 c0 -16 70 -292 76 -297 3 -3 82 -8 175 -10 155 -3 169 -2
169 14 0 18 -36 240 -45 283 l-6 23 -184 -3 c-102 -2 -185 -6 -185 -10z"/>
<path d="M1846 8372 c-2 -1 3 -21 11 -45 7 -23 19 -91 26 -152 l12 -110 182
-3 c206 -3 184 -13 198 93 4 28 16 87 26 133 10 45 19 84 19 85 0 3 -471 3
-474 -1z"/>
<path d="M2440 8330 c0 -35 -21 -182 -35 -247 l-5 -23 170 0 c168 0 170 0 175
23 3 12 20 82 38 155 l33 132 -188 0 -188 0 0 -40z"/>
<path d="M1915 7930 c-3 -5 8 -93 28 -230 l12 -85 121 0 122 0 27 145 c15 80
28 150 29 155 1 10 -333 25 -339 15z"/>
<path d="M1440 7908 c0 -13 15 -84 33 -158 l32 -135 158 -3 c122 -2 157 0 157
10 0 7 -7 49 -15 93 -8 44 -14 110 -15 148 l0 67 -175 0 c-175 0 -175 0 -175
-22z"/>
<path d="M2372 7793 c-12 -76 -22 -148 -22 -161 l0 -23 148 3 147 3 37 149
c20 82 35 153 32 158 -3 4 -76 8 -163 8 l-158 0 -21 -137z"/>
<path d="M1800 7004 c-25 -8 -88 -36 -140 -63 l-95 -49 -8 -51 c-4 -29 -12
-62 -18 -74 -11 -21 -10 -21 6 -5 17 16 21 14 70 -28 29 -24 55 -44 57 -44 3
0 13 19 23 42 27 69 119 201 157 228 30 20 35 28 27 42 -11 21 -19 21 -79 2z"/>
<path d="M2200 7003 c0 -11 12 -30 26 -44 38 -35 108 -135 140 -201 16 -32 32
-58 36 -58 4 0 31 18 60 40 29 22 59 40 66 40 9 0 11 10 6 38 -10 59 -27 86
-64 104 -61 30 -204 85 -237 93 -28 6 -33 4 -33 -12z"/>
<path d="M1893 6853 c-104 -164 -124 -201 -133 -249 -5 -27 -16 -75 -24 -107
-8 -32 -18 -87 -21 -122 l-7 -63 136 2 136 1 0 292 c0 160 -3 298 -6 307 -12
31 -33 15 -81 -61z"/>
<path d="M2086 6868 c-3 -35 -4 -115 -1 -178 2 -63 5 -173 5 -245 l0 -130 145
0 c139 0 144 1 140 20 -40 200 -45 216 -75 208 -24 -6 -26 4 -3 29 16 18 15
23 -6 88 -32 100 -148 270 -184 270 -11 0 -16 -18 -21 -62z"/>
<path d="M1490 6724 c-19 -7 -50 -13 -68 -13 -23 -1 -32 -5 -29 -13 2 -7 -10
-42 -28 -78 -18 -36 -47 -107 -65 -158 -27 -77 -31 -97 -22 -117 12 -25 12
-25 157 -25 80 0 148 0 153 0 4 0 10 28 14 62 4 35 16 96 26 136 21 81 19 88
-36 116 -43 22 -75 62 -69 86 3 11 4 19 4 19 -1 -1 -18 -7 -37 -15z"/>
<path d="M1323 6200 c-19 -8 -23 -17 -23 -57 0 -51 12 -95 55 -208 15 -38 25
-79 23 -90 -4 -19 1 -21 49 -23 29 -1 53 2 53 7 0 16 101 121 131 136 l27 15
-13 51 c-8 27 -17 79 -20 115 l-7 64 -127 -1 c-69 0 -136 -4 -148 -9z"/>
<path d="M1724 6138 c15 -162 64 -287 167 -423 108 -144 99 -164 93 186 l-6
304 -130 3 -131 3 7 -73z"/>
<path d="M2095 6197 c-3 -7 -4 -142 -3 -301 2 -207 6 -290 14 -293 16 -5 117
135 159 217 35 71 90 254 101 338 l7 52 -137 0 c-101 0 -138 -3 -141 -13z"/>
<path d="M2487 6149 c-4 -33 -14 -86 -23 -116 l-16 -56 28 -20 c16 -11 54 -47
85 -80 56 -58 57 -59 100 -52 41 6 44 9 45 38 0 18 22 78 48 134 57 122 66
165 41 193 -16 18 -31 20 -160 20 l-142 0 -6 -61z"/>
<path d="M2397 5838 c-87 -143 -114 -181 -161 -228 -58 -56 -74 -100 -38 -100
19 0 153 52 245 95 31 14 63 25 70 22 8 -2 18 21 29 67 9 39 16 71 15 72 -1 0
-32 21 -69 47 -37 26 -69 47 -72 47 -3 0 -12 -10 -19 -22z"/>
<path d="M4141 6779 c-30 -33 -37 -76 -15 -101 35 -37 54 -42 79 -18 13 12 29
35 36 52 10 25 9 33 -8 56 -26 35 -65 40 -92 11z"/>
<path d="M4638 6601 c-20 -4 -44 -14 -53 -21 -26 -22 -61 -97 -129 -283 -81
-217 -152 -403 -205 -535 -49 -123 -51 -152 -13 -182 23 -18 37 -21 86 -18 52
4 63 8 86 37 15 17 40 63 55 101 l28 70 131 -1 c72 -1 165 -4 206 -8 l74 -6
28 -74 c36 -98 52 -114 127 -119 56 -4 62 -2 91 26 16 17 30 38 30 47 0 16
-102 265 -233 570 -35 83 -83 199 -107 258 -26 66 -51 113 -64 122 -28 17 -92
25 -138 16z m111 -481 c36 -88 63 -161 60 -163 -2 -3 -60 -7 -127 -10 l-124
-5 6 26 c11 43 110 312 116 312 3 0 34 -72 69 -160z"/>
<path d="M5357 6585 c-15 -9 -31 -26 -35 -38 -4 -12 -7 -225 -7 -474 l0 -451
24 -26 c21 -23 33 -26 89 -26 57 0 67 3 93 29 l29 29 0 451 0 451 -28 31 c-24
27 -37 33 -83 36 -36 2 -63 -2 -82 -12z"/>
<path d="M4223 5404 c-34 -17 -58 -62 -49 -92 4 -10 25 -27 49 -37 57 -25 67
-34 60 -52 -5 -12 -15 -13 -49 -8 -24 3 -48 3 -54 0 -16 -10 6 -43 40 -60 36
-19 67 -9 103 35 48 57 31 101 -49 122 -24 7 -44 18 -44 24 0 18 36 27 60 14
24 -13 40 -6 40 19 0 40 -59 59 -107 35z"/>
<path d="M4473 5413 l-63 -4 0 -129 0 -130 58 0 c81 0 102 8 102 36 0 21 -5
24 -34 24 -47 0 -66 9 -66 30 0 14 9 20 38 22 29 2 38 8 40 25 3 19 -2 22 -40
25 -35 2 -43 7 -43 23 0 17 7 20 53 20 l52 0 0 33 c0 25 -4 32 -17 30 -10 -1
-46 -3 -80 -5z"/>
<path d="M4668 5413 l-28 -4 0 -123 c0 -114 2 -124 19 -129 25 -6 31 0 31 32
0 14 5 33 10 41 9 13 13 12 28 -9 35 -47 62 -71 82 -71 28 0 26 26 -6 67 l-25
33 20 26 c39 50 20 118 -38 134 -37 10 -44 10 -93 3z m82 -68 c18 -21 5 -45
-25 -45 -27 0 -41 20 -31 45 7 19 40 19 56 0z"/>
<path d="M4863 5378 c2 -24 21 -82 42 -130 33 -79 40 -88 64 -88 24 0 30 10
75 117 46 110 47 117 30 130 -10 7 -22 12 -27 10 -5 -1 -24 -41 -42 -87 -20
-52 -35 -79 -39 -70 -3 8 -16 47 -29 85 -21 62 -27 70 -52 73 -27 4 -28 3 -22
-40z"/>
<path d="M5137 5414 c-9 -9 -9 -107 -1 -194 6 -58 9 -65 29 -66 21 -2 22 3 28
91 6 94 1 165 -13 165 -5 0 -15 2 -22 5 -8 3 -17 2 -21 -1z"/>
<path d="M5325 5402 c-46 -28 -65 -64 -65 -120 0 -57 21 -91 74 -116 48 -23
71 -20 108 12 37 34 34 69 -5 57 -80 -25 -117 -9 -117 52 0 40 33 78 58 67 32
-14 80 -16 87 -4 11 18 -36 60 -76 66 -23 3 -43 -1 -64 -14z"/>
<path d="M5527 5403 c-4 -3 -7 -60 -7 -125 l0 -119 83 3 c74 3 82 5 82 23 0
17 -8 21 -50 25 -42 4 -50 8 -50 25 0 16 8 21 40 25 70 9 52 49 -22 50 -16 0
-23 6 -23 19 0 23 19 31 71 31 35 0 39 3 39 25 0 25 -1 25 -78 25 -43 0 -82
-3 -85 -7z"/>
<path d="M7220 6861 c-24 -6 -25 -11 -28 -87 -4 -108 7 -134 53 -134 46 0 55
23 55 135 0 97 -8 106 -80 86z"/>
<path d="M7426 6838 c-19 -27 -22 -148 -4 -166 7 -7 27 -12 45 -12 26 0 36 6
48 30 20 39 20 134 -1 154 -23 24 -70 20 -88 -6z"/>
<path d="M6966 6828 c-21 -29 -21 -116 0 -146 11 -16 25 -22 53 -22 54 0 62
15 59 107 l-3 78 -47 3 c-39 3 -49 -1 -62 -20z"/>
<path d="M8625 6840 c-34 -14 -77 -67 -77 -95 0 -33 67 -105 98 -105 27 0 104
82 104 110 0 24 -57 86 -85 94 -11 2 -29 1 -40 -4z"/>
<path d="M8890 6814 c-47 -42 -52 -76 -18 -120 54 -70 89 -72 147 -9 44 48 51
77 25 113 -18 26 -65 52 -93 52 -12 0 -39 -16 -61 -36z"/>
<path d="M6203 6761 c-67 -42 -88 -112 -54 -179 62 -122 228 -74 234 67 3 92
-104 159 -180 112z m82 -101 c8 -26 -1 -40 -26 -40 -22 0 -34 22 -25 45 8 22
44 18 51 -5z"/>
<path d="M3545 6760 c-30 -12 -64 -53 -74 -88 -19 -66 28 -145 95 -158 71 -13
154 60 154 136 0 80 -98 142 -175 110z"/>
<path d="M1270 4153 c0 -14 31 -157 35 -161 2 -2 19 21 38 51 20 30 40 58 46
61 6 4 11 18 11 32 0 23 -3 24 -65 24 -36 0 -65 -3 -65 -7z"/>
<path d="M1580 4147 c0 -11 126 -176 164 -215 11 -11 29 7 100 102 47 63 86
117 86 121 0 3 -79 5 -175 5 -137 0 -175 -3 -175 -13z"/>
<path d="M2120 4143 c0 -7 20 -35 45 -63 24 -27 63 -75 85 -105 22 -30 44 -55
48 -55 4 0 34 32 67 72 33 39 77 90 98 113 20 23 37 45 37 47 0 3 -85 5 -190
4 -142 -1 -190 -4 -190 -13z"/>
<path d="M2680 4147 c0 -25 126 -185 167 -212 26 -17 26 -17 65 29 22 26 65
78 95 116 l54 70 -153 0 c-84 0 -170 3 -190 6 -30 5 -38 3 -38 -9z"/>
<path d="M3210 4135 c0 -14 89 -116 156 -181 l22 -21 22 76 c11 42 25 86 31
99 5 13 7 28 4 33 -4 5 -58 9 -121 9 -96 0 -114 -2 -114 -15z"/>
<path d="M1438 4028 c-8 -18 -36 -58 -61 -88 -67 -81 -68 -85 -40 -240 13 -74
27 -148 31 -164 l7 -29 42 55 c22 30 77 94 122 142 45 48 93 103 107 122 l26
34 -72 77 c-67 72 -125 123 -140 123 -4 0 -13 -15 -22 -32z"/>
<path d="M1974 4023 c-16 -21 -55 -66 -87 -101 l-59 -63 59 -63 c32 -34 76
-85 99 -112 49 -59 41 -63 156 79 l80 98 -63 67 c-78 84 -131 132 -145 132 -7
0 -24 -17 -40 -37z"/>
<path d="M2520 4003 c-88 -110 -152 -173 -198 -194 -64 -28 -84 -48 -167 -174
-40 -60 -95 -132 -124 -160 -28 -27 -51 -54 -51 -61 0 -6 22 -27 50 -46 27
-19 93 -85 145 -146 53 -61 100 -114 106 -118 14 -8 44 21 76 75 15 25 56 87
92 136 36 50 101 147 145 217 45 70 107 166 140 213 l59 84 -108 116 c-59 63
-110 115 -114 115 -3 -1 -26 -26 -51 -57z m-53 -269 c55 -35 75 -159 36 -212
-52 -69 -130 -89 -202 -53 -97 50 -110 172 -28 250 45 41 142 49 194 15z"/>
<path d="M2340 3634 c-14 -36 -13 -49 8 -67 38 -34 85 -13 85 38 0 35 -20 55
-54 55 -22 0 -32 -6 -39 -26z"/>
<path d="M3078 4008 c-18 -24 -57 -69 -86 -102 l-53 -60 93 -93 c51 -51 98
-93 104 -93 7 0 19 11 27 23 8 13 43 58 76 99 34 42 61 79 61 82 0 3 -30 38
-67 76 -36 39 -73 79 -80 90 -21 30 -38 25 -75 -22z"/>
<path d="M3253 3714 c-46 -47 -83 -89 -83 -94 0 -4 26 -34 57 -66 l56 -59 24
90 c14 50 33 114 44 143 19 53 18 72 -3 72 -7 0 -49 -39 -95 -86z"/>
<path d="M1673 3689 c-40 -50 -73 -99 -73 -109 0 -10 -13 -23 -30 -30 -31 -13
-136 -126 -123 -132 5 -1 32 -32 62 -68 61 -73 110 -119 128 -120 6 0 29 21
50 48 20 26 86 100 146 164 60 65 107 124 105 132 -3 16 -176 206 -186 206 -4
-1 -40 -42 -79 -91z"/>
<path d="M2763 3603 c-59 -87 -143 -214 -186 -283 -43 -69 -97 -150 -120 -180
-23 -30 -52 -70 -65 -88 l-23 -34 43 -38 c24 -21 68 -72 98 -114 30 -41 57
-76 61 -76 3 0 24 26 46 58 23 32 71 91 107 130 36 40 66 77 66 82 0 6 8 10
18 10 34 0 120 48 144 81 14 19 38 59 54 89 16 30 60 87 97 127 l69 72 -57 58
c-32 32 -78 85 -103 118 -55 73 -101 124 -124 136 -14 8 -35 -17 -125 -148z
m132 -185 c31 -24 55 -74 55 -115 0 -87 -48 -155 -121 -174 -41 -11 -50 -10
-93 10 -62 30 -82 62 -79 124 3 60 39 126 85 156 45 28 116 28 153 -1z"/>
<path d="M2760 3321 c-24 -45 5 -96 51 -89 29 4 46 50 30 84 -14 31 -65 34
-81 5z"/>
<path d="M3138 3258 c-123 -135 -156 -169 -197 -200 l-35 -26 54 -59 c29 -32
70 -80 90 -108 21 -27 47 -58 58 -68 20 -18 21 -18 30 0 11 21 50 173 82 318
12 55 28 128 36 163 26 115 2 111 -118 -20z"/>
<path d="M1850 3293 c-31 -32 -71 -75 -90 -96 l-34 -37 42 -43 42 -42 85 85
c47 46 85 92 85 102 0 17 -56 88 -69 88 -4 0 -31 -26 -61 -57z"/>
<path d="M1400 3327 c0 -19 40 -236 51 -280 9 -34 12 -37 26 -25 14 11 15 4 9
-73 -8 -93 -1 -159 18 -159 17 1 59 41 103 101 22 30 57 66 77 79 20 14 36 28
36 32 0 12 -133 117 -142 112 -4 -3 -8 1 -8 9 0 13 -155 217 -165 217 -3 0 -5
-6 -5 -13z"/>
<path d="M2020 3200 c0 -13 -31 -51 -80 -100 l-79 -78 32 -40 c113 -141 149
-182 157 -177 6 3 24 27 42 53 17 26 53 72 80 103 26 31 48 59 48 63 0 9 -163
177 -182 187 -15 8 -18 6 -18 -11z"/>
<path d="M2820 2953 c0 -5 -27 -50 -60 -99 -33 -49 -60 -92 -60 -96 0 -5 65
-8 145 -8 80 0 145 3 145 8 0 12 -96 135 -134 171 -20 19 -36 30 -36 24z"/>
<path d="M1737 2901 c-46 -61 -85 -123 -89 -140 -2 -11 24 -13 142 -11 80 1
147 3 149 5 7 8 -50 78 -109 136 l-58 57 -35 -47z"/>
<path d="M2274 2922 c-40 -51 -114 -160 -114 -168 0 -5 68 -8 151 -6 l150 3
-18 28 c-10 15 -47 60 -83 99 l-65 70 -21 -26z"/>
<path d="M4825 4592 c-81 -51 -108 -130 -64 -186 69 -88 206 -71 245 29 16 42
16 48 0 88 -9 23 -28 50 -42 61 -39 28 -102 31 -139 8z"/>
<path d="M7183 3906 c-56 -14 -101 -39 -110 -62 -3 -8 -15 -14 -27 -14 -27 0
-140 -53 -183 -86 -18 -14 -33 -33 -33 -43 0 -21 30 -51 50 -51 16 0 196 105
205 120 3 6 23 10 45 10 49 0 170 37 176 54 3 8 -2 30 -10 50 -17 40 -27 42
-113 22z"/>
<path d="M7761 3886 c-11 -13 -11 -22 -3 -41 15 -32 42 -48 137 -81 44 -15 96
-37 115 -50 43 -29 126 -58 145 -50 50 19 -49 110 -192 177 -120 57 -181 70
-202 45z"/>
<path d="M7315 3640 c-163 -44 -257 -89 -379 -184 -139 -108 -259 -294 -317
-491 -20 -68 -24 -102 -23 -225 0 -173 18 -250 94 -405 145 -297 400 -472 734
-506 108 -11 217 -5 267 16 12 4 33 -8 68 -39 96 -86 142 -96 238 -51 64 29
107 65 129 108 13 24 17 26 36 16 46 -25 175 20 236 80 47 47 64 86 70 158 4
59 7 63 43 88 51 33 67 59 80 130 17 91 4 162 -36 202 -18 18 -43 33 -54 33
-21 0 -21 1 5 52 22 44 26 61 22 118 -4 76 -27 118 -87 162 -27 19 -39 38 -49
73 -54 201 -230 435 -413 548 -194 120 -470 169 -664 117z m394 -404 c25 -29
1 -62 -120 -171 -98 -88 -145 -141 -237 -265 -148 -199 -234 -294 -290 -321
-24 -11 -46 -18 -49 -16 -16 17 17 84 83 168 40 52 105 137 143 189 40 55 111
134 169 187 59 55 119 122 147 164 63 96 112 116 154 65z m299 -269 c6 -7 12
-39 14 -72 l3 -59 77 -17 77 -16 33 29 c35 32 69 33 113 4 25 -17 55 -74 55
-105 0 -22 -24 -51 -56 -69 -16 -9 -16 -14 9 -88 l26 -79 39 -3 c56 -4 63 -18
60 -104 l-3 -73 -57 -5 c-31 -3 -58 -7 -61 -10 -2 -3 -15 -34 -29 -70 l-24
-65 28 -23 c36 -30 35 -57 -2 -92 -42 -39 -72 -44 -117 -20 -44 23 -60 24
-117 8 -56 -16 -60 -21 -57 -76 2 -59 -10 -72 -74 -74 -64 -3 -95 30 -95 102
0 45 -2 49 -31 59 -26 9 -38 7 -80 -14 -60 -31 -121 -35 -149 -10 -27 24 -27
84 0 118 25 32 25 35 -3 77 -13 19 -27 47 -31 63 -6 26 -9 27 -66 27 -70 0
-73 5 -68 110 l3 65 49 5 c49 5 50 5 61 50 7 25 19 59 28 77 23 44 21 57 -8
73 -49 26 -45 98 8 130 41 25 95 25 127 0 29 -23 53 -24 115 -8 l45 12 0 66
c0 38 5 71 12 78 16 16 132 16 146 -1z"/>
<path d="M7854 2666 c-52 -23 -102 -75 -130 -134 -75 -158 38 -362 202 -362
116 0 225 68 252 156 26 89 10 191 -42 258 -54 71 -208 116 -282 82z"/>
<path d="M6465 3335 c-8 -14 -22 -36 -30 -49 -20 -34 -93 -210 -106 -258 -8
-32 -8 -43 3 -49 20 -13 74 -11 86 4 5 6 31 64 57 127 26 63 55 130 66 148 26
46 24 65 -10 85 -39 23 -48 22 -66 -8z"/>
<path d="M8473 3284 c-8 -21 33 -145 62 -188 23 -35 55 -44 77 -22 21 20 14
47 -35 141 -35 67 -46 80 -70 83 -18 2 -29 -2 -34 -14z"/>
<path d="M6395 2390 c-16 -26 36 -192 69 -219 20 -16 64 -7 73 16 7 17 -53
142 -90 190 -19 24 -42 30 -52 13z"/>
<path d="M6968 1773 c-18 -22 8 -62 57 -90 50 -28 165 -33 165 -7 0 9 5 12 13
8 9 -6 9 -5 0 8 -16 18 -142 78 -189 88 -24 6 -37 4 -46 -7z"/>
<path d="M4110 2965 c-11 -13 -9 -15 15 -15 16 0 25 5 23 12 -7 19 -24 20 -38
3z"/>
<path d="M4655 2880 c-272 -44 -483 -309 -462 -581 18 -229 182 -426 404 -484
112 -29 272 -12 373 40 73 37 155 113 201 182 66 101 90 170 96 274 18 285
-212 550 -497 572 -36 3 -87 2 -115 -3z m53 -258 c18 -23 15 -79 -4 -86 -9 -3
-33 -6 -54 -6 -46 0 -51 -6 -59 -79 l-6 -56 -45 3 c-79 5 -128 59 -110 122 19
65 79 108 165 119 63 8 96 3 113 -17z m267 -47 c26 -25 32 -65 16 -108 -24
-64 -181 -79 -181 -17 0 34 22 91 46 120 33 39 83 41 119 5z m-187 -192 c26
-35 -16 -102 -76 -121 -35 -12 -42 -18 -42 -40 -1 -38 -35 -108 -58 -121 -41
-22 -135 -7 -174 27 -23 19 -24 89 -2 120 18 26 54 28 157 8 61 -12 67 -11 63
3 -20 73 -19 81 20 117 31 30 42 35 68 30 17 -4 37 -14 44 -23z m180 -113 c18
-11 37 -31 43 -44 17 -36 2 -94 -31 -128 -27 -27 -34 -29 -92 -26 l-63 3 -9
36 c-7 30 -5 45 13 82 48 99 77 115 139 77z"/>
<path d="M1585 1866 c-60 -19 -93 -44 -121 -92 -37 -63 -42 -137 -12 -194 30
-58 95 -107 153 -116 39 -5 55 -2 108 24 81 41 110 82 115 167 4 55 0 70 -24
115 -45 83 -136 123 -219 96z m111 -140 c43 -43 43 -69 0 -112 -46 -46 -93
-47 -130 -3 -35 42 -34 80 5 118 42 42 81 41 125 -3z"/>
<path d="M2968 1860 c-106 -32 -165 -115 -155 -217 18 -175 214 -242 341 -117
100 99 59 272 -76 328 -40 17 -68 19 -110 6z m113 -139 c16 -16 29 -38 29 -48
0 -28 -37 -82 -63 -92 -55 -21 -117 22 -117 81 0 41 48 88 90 88 22 0 41 -9
61 -29z"/>
</g>
</svg>
